# xmcd
#
# Track frame offsets:
#	150
#	12822
#	24145
#	36370
#	48162
#	59345
#	67872
#	79652
#	91412
#	105912
#	119065
#	132952
#	145122
#	154897
#	166627
#	178010
#	190355
#	200960
#	210467
#	222897
#
# Disc length: 3133 seconds
#
# Revision: 0
# Processed by: cddbd v1.5.1PL0 Copyright (c) Steve Scherf et al.
# Submitted via: audiograbber 1.83.01
#
DISCID=0f0c3b14
DTITLE=Ovations, The - I'm Living Good
DYEAR=1900
DGENRE=R&B
TTITLE0=I'm Living Good
TTITLE1=I Believe I'll Go Back Home
TTITLE2=Qualifications
TTITLE3=Don't Cry
TTITLE4=I Need A Lot Of Loving
TTITLE5=I'll Be True
TTITLE6=Ride My Troubles and Blues Away
TTITLE7=Dance Party
TTITLE8=It's Wonderful To Be In Love
TTITLE9=What Did I Do
TTITLE10=I've Gotta Go
TTITLE11=Peace Of Mind
TTITLE12=Rockin' Chair
TTITLE13=You Had Your Chance
TTITLE14=Adios Senorita
TTITLE15=I Miss You Baby
TTITLE16=Me And My Imagination
TTITLE17=They Say
TTITLE18=Won't You Call
TTITLE19=I Know You Don't Want Me
EXTD=
EXTT0=
EXTT1=
EXTT2=
EXTT3=
EXTT4=
EXTT5=
EXTT6=
EXTT7=
EXTT8=
EXTT9=
EXTT10=
EXTT11=
EXTT12=
EXTT13=
EXTT14=
EXTT15=
EXTT16=
EXTT17=
EXTT18=
EXTT19=
PLAYORDER=
